<svg version="1.2" xmlns="http://www.w3.org/2000/svg" viewBox="0 0 1000 1000" width="1000" height="1000">
	<title>KXRT-ai</title>
	<style>
		.s0 { fill: #6161ff } 
	</style>
	<g id="Version 1">
		<g id="&lt;Group&gt;">
			<path id="&lt;Path&gt;" class="s0" d="m397.7 189.8v41c0 6.9-4 13.2-10.2 16.1l-115.8 54.4-3.3 1.5v-113c0-9.8-8-17.8-17.8-17.8h-34.9c-9.9 0-17.8 8-17.8 17.8v281.8c0 9.8 7.9 17.8 17.8 17.8h34.9c9.8 0 17.8-8 17.8-17.8v-90.9l1.2-0.5 5.6 2 110.8 40c7 2.6 11.7 9.3 11.7 16.8v32.6c0 9.8 8 17.8 17.8 17.8h35c9.8 0 17.8-8 17.8-17.8v-19.7-62.5c0-7.5-4.7-14.2-11.8-16.7l-58.8-21.2-32.1-11.6-5.7-2.1 5.7-2.6 32.1-15.2 60.3-28.3c6.3-2.9 10.3-9.2 10.3-16.1v-66.6-19.2c0-9.8-8-17.8-17.8-17.8h-35c-9.8 0-17.8 8-17.8 17.8z"/>
			<path id="&lt;Compound Path&gt;" fill-rule="evenodd" class="s0" d="m214.9 510.6h236.3c9.4 0 17.1 7.6 17.1 17v115.3c0 6.6-3.9 12.6-9.8 15.4l-55.8 26.2c-13.7 6.4-12.8 26.2 1.5 31.4l52.8 19.1c6.8 2.4 11.3 8.8 11.3 16v60c0 9.4-7.7 17-17.1 17h-36.5c-9.4 0-17-7.6-17-17v-10.5c0-7.2-4.5-13.6-11.2-16l-95.3-34.4c-11.1-4-22.8 4.2-22.8 16v44.9c0 9.4-7.6 17-17 17h-36.5c-9.4 0-17-7.6-17-17v-283.4c0-9.4 7.6-17 17-17zm77.7 147.7l95.3-44.8c6-2.8 9.8-8.8 9.8-15.4 0-9.4-7.6-17-17-17h-95.3c-9.4 0-17 7.6-17 17v44.8c0 12.4 13 20.7 24.2 15.4z"/>
			<path id="&lt;Path&gt;" class="s0" d="m802.1 527.6c0-9.4-7.6-17-17-17h-95.8-70.6-95.8c-9.4 0-17 7.6-17 17v36.5c0 9.4 7.6 17 17 17h78.8c9.4 0 17 7.6 17 17.1v212.8c0 9.4 7.7 17 17.1 17h36.4c9.4 0 17.1-7.6 17.1-17v-212.8c0-9.5 7.6-17.1 17-17.1h78.8c9.4 0 17-7.6 17-17z"/>
			<path id="&lt;Path&gt;" class="s0" d="m731.6 189.8v62.4c0 7.2-4.3 13.6-10.9 16.4l-59.8 25.2c-4.4 1.8-9.4 1.8-13.8 0l-59.8-25.2c-6.6-2.8-10.9-9.2-10.9-16.4v-62.4c0-9.8-8-17.8-17.8-17.8h-34.9c-9.8 0-17.8 8-17.8 17.8v68.2 41c0 7.2 4.3 13.7 10.9 16.5l16.2 6.8c14.5 6.1 14.5 26.7 0 32.8l-16.2 6.8c-6.6 2.8-10.9 9.3-10.9 16.5v21.2 72c0 9.8 8 17.8 17.8 17.8h34.9c9.8 0 17.8-8 17.8-17.8v-46.4c0-7.2 4.3-13.6 10.9-16.4l59.8-25.2c4.4-1.8 9.4-1.8 13.8 0l59.8 25.2c6.6 2.8 10.9 9.2 10.9 16.4v46.4c0 9.8 8 17.8 17.8 17.8h34.9c9.9 0 17.8-8 17.8-17.8v-72-21.2c0-7.2-4.3-13.7-10.9-16.5l-16.2-6.8c-14.5-6.1-14.5-26.7 0-32.8l16.2-6.8c6.6-2.8 10.9-9.3 10.9-16.5v-41-68.2c0-9.8-7.9-17.8-17.8-17.8h-34.9c-9.8 0-17.8 8-17.8 17.8z"/>
		</g>
	</g>
</svg>